<svg width="67" height="67" viewBox="0 0 67 67" fill="none" xmlns="http://www.w3.org/2000/svg">
<rect x="0.107422" width="66.7107" height="66.7107" rx="12" fill="url(#paint0_linear_1396_23214)" fill-opacity="0.2"/>
<circle cx="37.7838" cy="13.5982" r="5.37166" fill="#E9394B"/>
<path d="M18.9961 34.4504C19.6368 32.7254 22.0766 32.7254 22.7173 34.4504L27.954 48.5478C28.4356 49.8444 27.4765 51.2238 26.0933 51.2238H15.6201C14.2368 51.2238 13.2778 49.8444 13.7594 48.5478L18.9961 34.4504Z" fill="white"/>
<path d="M19.4612 34.6232C19.9418 33.3295 21.7716 33.3295 22.2522 34.6232L27.4888 48.7206C27.85 49.6931 27.1307 50.7276 26.0933 50.7276H15.6201C14.5826 50.7276 13.8633 49.6931 14.2246 48.7206L19.4612 34.6232Z" stroke="white" stroke-opacity="0.4" stroke-width="0.992427"/>
<mask id="path-5-inside-1_1396_23214" fill="white">
<path fill-rule="evenodd" clip-rule="evenodd" d="M22.6652 23.2259C22.5104 23.65 22.5049 24.1142 22.6494 24.5419L31.1985 49.8373C31.4711 50.6437 32.2276 51.1866 33.0789 51.1866H39.6319C40.9902 51.1866 41.9472 49.853 41.5123 48.5662L32.8839 23.0364C32.6113 22.2299 31.8548 21.687 31.0035 21.687H24.6154C23.7816 21.687 23.0367 22.2081 22.7508 22.9914L22.6652 23.2259Z"/>
</mask>
<path fill-rule="evenodd" clip-rule="evenodd" d="M22.6652 23.2259C22.5104 23.65 22.5049 24.1142 22.6494 24.5419L31.1985 49.8373C31.4711 50.6437 32.2276 51.1866 33.0789 51.1866H39.6319C40.9902 51.1866 41.9472 49.853 41.5123 48.5662L32.8839 23.0364C32.6113 22.2299 31.8548 21.687 31.0035 21.687H24.6154C23.7816 21.687 23.0367 22.2081 22.7508 22.9914L22.6652 23.2259Z" fill="white"/>
<path d="M32.8839 23.0364L31.9437 23.3541L32.8839 23.0364ZM41.5123 48.5662L40.5721 48.884L41.5123 48.5662ZM32.1387 49.5195L23.5896 24.2242L21.7092 24.8597L30.2583 50.155L32.1387 49.5195ZM39.6319 50.1942H33.0789V52.179H39.6319V50.1942ZM31.9437 23.3541L40.5721 48.884L42.4525 48.2485L33.8241 22.7186L31.9437 23.3541ZM24.6154 22.6794H31.0035V20.6946H24.6154V22.6794ZM21.8185 22.6512L21.7329 22.8857L23.5975 23.5662L23.6831 23.3316L21.8185 22.6512ZM24.6154 20.6946C23.3647 20.6946 22.2473 21.4763 21.8185 22.6512L23.6831 23.3316C23.826 22.94 24.1985 22.6794 24.6154 22.6794V20.6946ZM33.8241 22.7186C33.4152 21.5089 32.2805 20.6946 31.0035 20.6946V22.6794C31.4292 22.6794 31.8074 22.9509 31.9437 23.3541L33.8241 22.7186ZM39.6319 52.179C41.6693 52.179 43.1048 50.1786 42.4525 48.2485L40.5721 48.884C40.7895 49.5274 40.311 50.1942 39.6319 50.1942V52.179ZM23.5896 24.2242C23.5173 24.0103 23.5201 23.7782 23.5975 23.5662L21.7329 22.8857C21.5008 23.5219 21.4924 24.2181 21.7092 24.8597L23.5896 24.2242ZM30.2583 50.155C30.6672 51.3647 31.8019 52.179 33.0789 52.179V50.1942C32.6532 50.1942 32.275 49.9227 32.1387 49.5195L30.2583 50.155Z" fill="white" fill-opacity="0.4" mask="url(#path-5-inside-1_1396_23214)"/>
<mask id="path-7-inside-2_1396_23214" fill="white">
<path fill-rule="evenodd" clip-rule="evenodd" d="M36.4562 23.2255C36.3015 23.6496 36.2959 24.1138 36.4404 24.5414L44.9895 49.8368C45.2621 50.6433 46.0186 51.1861 46.8699 51.1861H53.4229C54.7812 51.1861 55.7382 49.8525 55.3033 48.5658L46.6749 23.0359C46.4023 22.2294 45.6458 21.6865 44.7945 21.6865H38.4064C37.5726 21.6865 36.8277 22.2076 36.5418 22.9909L36.4562 23.2255Z"/>
</mask>
<path fill-rule="evenodd" clip-rule="evenodd" d="M36.4562 23.2255C36.3015 23.6496 36.2959 24.1138 36.4404 24.5414L44.9895 49.8368C45.2621 50.6433 46.0186 51.1861 46.8699 51.1861H53.4229C54.7812 51.1861 55.7382 49.8525 55.3033 48.5658L46.6749 23.0359C46.4023 22.2294 45.6458 21.6865 44.7945 21.6865H38.4064C37.5726 21.6865 36.8277 22.2076 36.5418 22.9909L36.4562 23.2255Z" fill="white"/>
<path d="M36.5418 22.9909L35.6095 22.6507L36.5418 22.9909ZM46.6749 23.0359L45.7347 23.3536L46.6749 23.0359ZM55.3033 48.5658L54.3631 48.8835L55.3033 48.5658ZM44.9895 49.8368L45.9297 49.519L44.9895 49.8368ZM45.9297 49.519L37.3806 24.2237L35.5002 24.8592L44.0493 50.1545L45.9297 49.519ZM53.4229 50.1937H46.8699V52.1785H53.4229V50.1937ZM45.7347 23.3536L54.3631 48.8835L56.2435 48.248L47.6151 22.7181L45.7347 23.3536ZM38.4064 22.679H44.7945V20.6941H38.4064V22.679ZM35.6095 22.6507L35.5239 22.8852L37.3885 23.5657L37.4741 23.3311L35.6095 22.6507ZM38.4064 20.6941C37.1557 20.6941 36.0383 21.4758 35.6095 22.6507L37.4741 23.3311C37.617 22.9395 37.9895 22.679 38.4064 22.679V20.6941ZM47.6151 22.7181C47.2062 21.5084 46.0715 20.6941 44.7945 20.6941V22.679C45.2202 22.679 45.5984 22.9504 45.7347 23.3536L47.6151 22.7181ZM53.4229 52.1785C55.4603 52.1785 56.8958 50.1781 56.2435 48.248L54.3631 48.8835C54.5806 49.5269 54.1021 50.1937 53.4229 50.1937V52.1785ZM37.3806 24.2237C37.3083 24.0098 37.3111 23.7777 37.3885 23.5657L35.5239 22.8852C35.2918 23.5214 35.2834 24.2177 35.5002 24.8592L37.3806 24.2237ZM44.0493 50.1545C44.4582 51.3643 45.593 52.1785 46.8699 52.1785V50.1937C46.4442 50.1937 46.066 49.9223 45.9297 49.519L44.0493 50.1545Z" fill="white" fill-opacity="0.4" mask="url(#path-7-inside-2_1396_23214)"/>
<defs>
<linearGradient id="paint0_linear_1396_23214" x1="33.4628" y1="0" x2="33.4628" y2="66.7107" gradientUnits="userSpaceOnUse">
<stop stop-color="#D9D9D9"/>
<stop offset="1" stop-color="#D9D9D9" stop-opacity="0"/>
</linearGradient>
</defs>
</svg>
